<svg width="21" height="14" viewBox="0 0 21 14" fill="none" xmlns="http://www.w3.org/2000/svg">
<path d="M20.1175 6.82793C20.1175 6.82793 16.5077 0.188477 10.4914 0.188477C4.47503 0.188477 0.865234 6.82793 0.865234 6.82793C0.865234 6.82793 4.47503 13.4674 10.4914 13.4674C16.5077 13.4674 20.1175 6.82793 20.1175 6.82793ZM2.27667 6.82793C2.85846 5.94081 3.52763 5.11457 4.27409 4.36167C5.82269 2.80563 7.94044 1.39565 10.4914 1.39565C13.0423 1.39565 15.1588 2.80563 16.7098 4.36167C17.4563 5.11457 18.1255 5.94081 18.7073 6.82793C18.6375 6.93295 18.5605 7.04884 18.4726 7.1756C18.0695 7.75504 17.4739 8.52763 16.7098 9.29419C15.1588 10.8502 13.0411 12.2602 10.4914 12.2602C7.94044 12.2602 5.82389 10.8502 4.27288 9.29419C3.52643 8.54128 2.85727 7.71505 2.27546 6.82793H2.27667Z" fill="white"/>
<path d="M10.4917 3.8102C9.69389 3.8102 8.92875 4.12816 8.36461 4.69413C7.80047 5.26011 7.48354 6.02773 7.48354 6.82813C7.48354 7.62854 7.80047 8.39616 8.36461 8.96214C8.92875 9.52811 9.69389 9.84607 10.4917 9.84607C11.2895 9.84607 12.0547 9.52811 12.6188 8.96214C13.1829 8.39616 13.4999 7.62854 13.4999 6.82813C13.4999 6.02773 13.1829 5.26011 12.6188 4.69413C12.0547 4.12816 11.2895 3.8102 10.4917 3.8102ZM6.28027 6.82813C6.28027 5.70757 6.72398 4.63289 7.51377 3.84053C8.30357 3.04817 9.37476 2.60303 10.4917 2.60303C11.6086 2.60303 12.6798 3.04817 13.4696 3.84053C14.2594 4.63289 14.7031 5.70757 14.7031 6.82813C14.7031 7.9487 14.2594 9.02337 13.4696 9.81574C12.6798 10.6081 11.6086 11.0532 10.4917 11.0532C9.37476 11.0532 8.30357 10.6081 7.51377 9.81574C6.72398 9.02337 6.28027 7.9487 6.28027 6.82813Z" fill="white"/>
</svg>
