<svg width="20" height="14" viewBox="0 0 20 14" fill="none" xmlns="http://www.w3.org/2000/svg">
<path d="M19.6175 6.82793C19.6175 6.82793 16.0077 0.188477 9.99136 0.188477C3.97503 0.188477 0.365234 6.82793 0.365234 6.82793C0.365234 6.82793 3.97503 13.4674 9.99136 13.4674C16.0077 13.4674 19.6175 6.82793 19.6175 6.82793ZM1.77667 6.82793C2.35846 5.94081 3.02763 5.11457 3.77409 4.36167C5.32269 2.80563 7.44044 1.39565 9.99136 1.39565C12.5423 1.39565 14.6588 2.80563 16.2098 4.36167C16.9563 5.11457 17.6255 5.94081 18.2073 6.82793C18.1375 6.93295 18.0605 7.04884 17.9726 7.1756C17.5695 7.75504 16.9739 8.52763 16.2098 9.29419C14.6588 10.8502 12.5411 12.2602 9.99136 12.2602C7.44044 12.2602 5.32389 10.8502 3.77288 9.29419C3.02643 8.54128 2.35727 7.71505 1.77546 6.82793H1.77667Z" fill="black"/>
<path d="M9.9917 3.8102C9.19389 3.8102 8.42875 4.12816 7.86461 4.69413C7.30047 5.26011 6.98354 6.02773 6.98354 6.82813C6.98354 7.62854 7.30047 8.39616 7.86461 8.96214C8.42875 9.52811 9.19389 9.84607 9.9917 9.84607C10.7895 9.84607 11.5547 9.52811 12.1188 8.96214C12.6829 8.39616 12.9999 7.62854 12.9999 6.82813C12.9999 6.02773 12.6829 5.26011 12.1188 4.69413C11.5547 4.12816 10.7895 3.8102 9.9917 3.8102ZM5.78027 6.82813C5.78027 5.70757 6.22398 4.63289 7.01377 3.84053C7.80357 3.04817 8.87476 2.60303 9.9917 2.60303C11.1086 2.60303 12.1798 3.04817 12.9696 3.84053C13.7594 4.63289 14.2031 5.70757 14.2031 6.82813C14.2031 7.9487 13.7594 9.02337 12.9696 9.81574C12.1798 10.6081 11.1086 11.0532 9.9917 11.0532C8.87476 11.0532 7.80357 10.6081 7.01377 9.81574C6.22398 9.02337 5.78027 7.9487 5.78027 6.82813Z" fill="black"/>
</svg>
