<svg width="20" height="19" viewBox="0 0 20 19" fill="none" xmlns="http://www.w3.org/2000/svg">
<path d="M15.4625 16.0708L11.0292 11.6375C10.6333 11.9542 10.1781 12.2049 9.66354 12.3896C9.14896 12.5743 8.60139 12.6667 8.02083 12.6667C6.58264 12.6667 5.36558 12.1687 4.36967 11.1728C3.37322 10.1763 2.875 8.95903 2.875 7.52083C2.875 6.08264 3.37322 4.86532 4.36967 3.86888C5.36558 2.87296 6.58264 2.375 8.02083 2.375C9.45903 2.375 10.6763 2.87296 11.6728 3.86888C12.6687 4.86532 13.1667 6.08264 13.1667 7.52083C13.1667 8.10139 13.0743 8.64896 12.8896 9.16354C12.7049 9.67812 12.4542 10.1333 12.1375 10.5292L16.5906 14.9823C16.7358 15.1274 16.8083 15.3056 16.8083 15.5167C16.8083 15.7278 16.7292 15.9125 16.5708 16.0708C16.4257 16.216 16.241 16.2885 16.0167 16.2885C15.7924 16.2885 15.6076 16.216 15.4625 16.0708ZM8.02083 11.0833C9.01042 11.0833 9.85169 10.7371 10.5447 10.0447C11.2371 9.35169 11.5833 8.51042 11.5833 7.52083C11.5833 6.53125 11.2371 5.68997 10.5447 4.997C9.85169 4.30456 9.01042 3.95833 8.02083 3.95833C7.03125 3.95833 6.18997 4.30456 5.497 4.997C4.80456 5.68997 4.45833 6.53125 4.45833 7.52083C4.45833 8.51042 4.80456 9.35169 5.497 10.0447C6.18997 10.7371 7.03125 11.0833 8.02083 11.0833Z" fill="white"/>
</svg>
