<svg width="19" height="19" viewBox="0 0 19 19" fill="none" xmlns="http://www.w3.org/2000/svg">
<path d="M17.8917 19C15.6222 19 13.4101 18.494 11.2554 17.4821C9.09995 16.4709 7.19115 15.1339 5.529 13.471C3.86615 11.8089 2.52911 9.90006 1.51789 7.74461C0.505963 5.58987 0 3.37778 0 1.10833C0 0.791667 0.105556 0.527778 0.316667 0.316667C0.527778 0.105556 0.791667 0 1.10833 0H5.38333C5.62963 0 5.84954 0.0791666 6.04306 0.2375C6.23657 0.395833 6.35093 0.598148 6.38611 0.844444L7.07222 4.53889C7.10741 4.78519 7.10319 5.00931 7.05956 5.21128C7.01522 5.41394 6.91389 5.59444 6.75556 5.75278L4.19583 8.33889C4.93472 9.60556 5.86291 10.7931 6.98039 11.9014C8.09717 13.0097 9.32407 13.9685 10.6611 14.7778L13.1417 12.2972C13.3 12.1389 13.5069 12.02 13.7623 11.9404C14.0171 11.8616 14.2676 11.8398 14.5139 11.875L18.1556 12.6139C18.4019 12.6667 18.6042 12.7852 18.7625 12.9696C18.9208 13.1547 19 13.3704 19 13.6167V17.8917C19 18.2083 18.8944 18.4722 18.6833 18.6833C18.4722 18.8944 18.2083 19 17.8917 19ZM3.19306 6.33333L4.93472 4.59167L4.48611 2.11111H2.1375C2.22546 2.83241 2.34861 3.54491 2.50694 4.24861C2.66528 4.95231 2.89398 5.64722 3.19306 6.33333ZM12.6403 15.7806C13.3264 16.0796 14.0259 16.3171 14.7387 16.4931C15.4509 16.669 16.1676 16.7833 16.8889 16.8361V14.5139L14.4083 14.0125L12.6403 15.7806Z" fill="#0C7B69"/>
</svg>
