<svg width="9" height="15" viewBox="0 0 9 15" fill="none" xmlns="http://www.w3.org/2000/svg">
<path d="M2.23445 0.296832L8.78615 6.94591C8.86391 7.02507 8.91887 7.11082 8.95101 7.20317C8.98367 7.29551 9 7.39446 9 7.5C9 7.60554 8.98367 7.70449 8.95101 7.79683C8.91887 7.88918 8.86391 7.97493 8.78615 8.05409L2.23445 14.723C2.053 14.9077 1.82618 15 1.554 15C1.28183 15 1.04853 14.9011 0.854118 14.7032C0.659706 14.5053 0.5625 14.2744 0.5625 14.0106C0.5625 13.7467 0.659706 13.5158 0.854118 13.3179L6.56984 7.5L0.85412 1.68206C0.672668 1.49736 0.581942 1.26992 0.581942 0.999735C0.581942 0.729023 0.679148 0.494722 0.873561 0.296832C1.06797 0.098944 1.29479 -6.73611e-07 1.554 -6.5095e-07C1.81322 -6.28288e-07 2.04004 0.0989441 2.23445 0.296832Z" fill="white"/>
</svg>
