<svg width="20" height="15" viewBox="0 0 20 15" fill="none" xmlns="http://www.w3.org/2000/svg">
<path d="M2 15C1.45 15 0.979333 14.8166 0.588 14.4497C0.196 14.0822 0 13.6406 0 13.125V1.875C0 1.35938 0.196 0.918125 0.588 0.55125C0.979333 0.18375 1.45 0 2 0H18C18.55 0 19.021 0.18375 19.413 0.55125C19.8043 0.918125 20 1.35938 20 1.875V13.125C20 13.6406 19.8043 14.0822 19.413 14.4497C19.021 14.8166 18.55 15 18 15H2ZM18 3.75L10.525 8.13281C10.4417 8.17969 10.354 8.21469 10.262 8.23781C10.1707 8.26156 10.0833 8.27344 10 8.27344C9.91667 8.27344 9.82933 8.26156 9.738 8.23781C9.646 8.21469 9.55833 8.17969 9.475 8.13281L2 3.75V13.125H18V3.75ZM10 6.5625L18 1.875H2L10 6.5625ZM2 3.75V3.98438V2.60156V2.625V1.875V2.625V2.61281V3.98438V3.75V13.125V3.75Z" fill="#0C7B69"/>
</svg>
