<svg width="18" height="22" viewBox="0 0 18 22" fill="none" xmlns="http://www.w3.org/2000/svg">
<path d="M9 19.1261C11.1214 17.3644 12.7234 15.6687 13.806 14.039C14.8877 12.4094 15.4286 10.8789 15.4286 9.44745C15.4286 8.21421 15.2091 7.16244 14.7703 6.29213C14.3306 5.4227 13.7893 4.718 13.1464 4.17802C12.5036 3.63892 11.8071 3.24825 11.0571 3.00601C10.3071 2.76376 9.62143 2.64264 9 2.64264C8.37857 2.64264 7.69286 2.76376 6.94286 3.00601C6.19286 3.24825 5.49643 3.63892 4.85357 4.17802C4.21071 4.718 3.66986 5.4227 3.231 6.29213C2.79129 7.16244 2.57143 8.21421 2.57143 9.44745C2.57143 10.8789 3.11229 12.4094 4.194 14.039C5.27657 15.6687 6.87857 17.3644 9 19.1261ZM9 22C8.80714 22 8.625 21.9723 8.45357 21.9168C8.28214 21.8621 8.12143 21.7798 7.97143 21.6697C5.29286 19.5335 3.29486 17.4525 1.97743 15.4264C0.659143 13.4004 0 11.4074 0 9.44745C0 7.88388 0.273429 6.51279 0.820286 5.33417C1.36629 4.15644 2.06786 3.17117 2.925 2.37838C3.78214 1.58559 4.74643 0.990991 5.81786 0.594595C6.88929 0.198198 7.95 0 9 0C10.05 0 11.1107 0.198198 12.1821 0.594595C13.2536 0.990991 14.2179 1.58559 15.075 2.37838C15.9321 3.17117 16.6341 4.15644 17.181 5.33417C17.727 6.51279 18 7.88388 18 9.44745C18 11.4074 17.3409 13.4004 16.0226 15.4264C14.7051 17.4525 12.7071 19.5335 10.0286 21.6697C9.9 21.7798 9.74486 21.8621 9.56314 21.9168C9.38057 21.9723 9.19286 22 9 22ZM9 11.8919C9.70714 11.8919 10.3127 11.6329 10.8167 11.115C11.3199 10.5979 11.5714 9.97598 11.5714 9.24925C11.5714 8.52252 11.3199 7.90018 10.8167 7.38222C10.3127 6.86515 9.70714 6.60661 9 6.60661C8.29286 6.60661 7.68771 6.86515 7.18457 7.38222C6.68057 7.90018 6.42857 8.52252 6.42857 9.24925C6.42857 9.97598 6.68057 10.5979 7.18457 11.115C7.68771 11.6329 8.29286 11.8919 9 11.8919Z" fill="#0C7B69"/>
</svg>
