<svg width="9" height="14" viewBox="0 0 9 14" fill="none" xmlns="http://www.w3.org/2000/svg">
<path d="M2.17195 0.276017L8.72365 6.45756C8.80141 6.53115 8.85637 6.61087 8.88851 6.69672C8.92117 6.78258 8.9375 6.87456 8.9375 6.97268C8.9375 7.0708 8.92117 7.16279 8.88851 7.24865C8.85637 7.3345 8.80141 7.41422 8.72365 7.48781L2.17195 13.6877C1.9905 13.8595 1.76368 13.9453 1.4915 13.9453C1.21933 13.9453 0.986031 13.8533 0.791618 13.6694C0.597206 13.4854 0.5 13.2707 0.5 13.0254C0.5 12.7801 0.597206 12.5655 0.791618 12.3815L6.50734 6.97268L0.79162 1.56384C0.610168 1.39213 0.519442 1.18068 0.519442 0.929494C0.519442 0.677817 0.616648 0.459991 0.811061 0.276017C1.00547 0.0920423 1.23229 5.56405e-05 1.4915 5.56616e-05C1.75072 5.56827e-05 1.97754 0.0920424 2.17195 0.276017Z" fill="#005B30"/>
</svg>
